%TF.GenerationSoftware,KiCad,Pcbnew,10.0.4*%
%TF.CreationDate,2026-07-14T19:17:06+05:30*%
%TF.ProjectId,DEVBOD,44455642-4f44-42e6-9b69-6361645f7063,rev?*%
%TF.SameCoordinates,Original*%
%TF.FileFunction,Soldermask,Bot*%
%TF.FilePolarity,Negative*%
%FSLAX46Y46*%
G04 Gerber Fmt 4.6, Leading zero omitted, Abs format (unit mm)*
G04 Created by KiCad (PCBNEW 10.0.4) date 2026-07-14 19:17:06*
%MOMM*%
%LPD*%
G01*
G04 APERTURE LIST*
%ADD10C,1.700000*%
%ADD11R,1.700000X1.700000*%
%ADD12C,0.650000*%
%ADD13O,1.000000X2.100000*%
%ADD14O,1.000000X1.600000*%
G04 APERTURE END LIST*
D10*
%TO.C,J2*%
X108200000Y-141800000D03*
X108200000Y-139260000D03*
X108200000Y-136720000D03*
X108200000Y-134180000D03*
X108200000Y-131640000D03*
X108200000Y-129100000D03*
X108200000Y-126560000D03*
X108200000Y-124020000D03*
X108200000Y-121480000D03*
X108200000Y-118940000D03*
X108200000Y-116400000D03*
X108200000Y-113860000D03*
X108200000Y-111320000D03*
X108200000Y-108780000D03*
X108200000Y-106240000D03*
X108200000Y-103700000D03*
X108200000Y-101160000D03*
X108200000Y-98620000D03*
X108200000Y-96080000D03*
D11*
X108200000Y-93540000D03*
%TD*%
%TO.C,J4*%
X120060000Y-141400000D03*
D10*
X122600000Y-141400000D03*
X125140000Y-141400000D03*
%TD*%
D11*
%TO.C,J3*%
X136000000Y-93880000D03*
D10*
X136000000Y-96420000D03*
X136000000Y-98960000D03*
X136000000Y-101500000D03*
X136000000Y-104040000D03*
X136000000Y-106580000D03*
X136000000Y-109120000D03*
X136000000Y-111660000D03*
X136000000Y-114200000D03*
X136000000Y-116740000D03*
X136000000Y-119280000D03*
X136000000Y-121820000D03*
X136000000Y-124360000D03*
X136000000Y-126900000D03*
X136000000Y-129440000D03*
X136000000Y-131980000D03*
X136000000Y-134520000D03*
X136000000Y-137060000D03*
X136000000Y-139600000D03*
X136000000Y-142140000D03*
%TD*%
D12*
%TO.C,J1*%
X119030000Y-103200000D03*
X124810000Y-103200000D03*
D13*
X117600000Y-102670000D03*
D14*
X117600000Y-106850000D03*
D13*
X126240000Y-102670000D03*
D14*
X126240000Y-106850000D03*
%TD*%
M02*
