%TF.GenerationSoftware,KiCad,Pcbnew,10.0.4*%
%TF.CreationDate,2026-07-14T19:17:06+05:30*%
%TF.ProjectId,DEVBOD,44455642-4f44-42e6-9b69-6361645f7063,rev?*%
%TF.SameCoordinates,Original*%
%TF.FileFunction,Legend,Top*%
%TF.FilePolarity,Positive*%
%FSLAX46Y46*%
G04 Gerber Fmt 4.6, Leading zero omitted, Abs format (unit mm)*
G04 Created by KiCad (PCBNEW 10.0.4) date 2026-07-14 19:17:06*
%MOMM*%
%LPD*%
G01*
G04 APERTURE LIST*
%ADD10C,0.200000*%
%ADD11C,0.150000*%
%ADD12C,0.120000*%
G04 APERTURE END LIST*
D10*
X96200000Y-77800000D02*
X148200000Y-77800000D01*
X148200000Y-159400000D01*
X96200000Y-159400000D01*
X96200000Y-77800000D01*
D11*
X128113333Y-111599580D02*
X128065714Y-111647200D01*
X128065714Y-111647200D02*
X127922857Y-111694819D01*
X127922857Y-111694819D02*
X127827619Y-111694819D01*
X127827619Y-111694819D02*
X127684762Y-111647200D01*
X127684762Y-111647200D02*
X127589524Y-111551961D01*
X127589524Y-111551961D02*
X127541905Y-111456723D01*
X127541905Y-111456723D02*
X127494286Y-111266247D01*
X127494286Y-111266247D02*
X127494286Y-111123390D01*
X127494286Y-111123390D02*
X127541905Y-110932914D01*
X127541905Y-110932914D02*
X127589524Y-110837676D01*
X127589524Y-110837676D02*
X127684762Y-110742438D01*
X127684762Y-110742438D02*
X127827619Y-110694819D01*
X127827619Y-110694819D02*
X127922857Y-110694819D01*
X127922857Y-110694819D02*
X128065714Y-110742438D01*
X128065714Y-110742438D02*
X128113333Y-110790057D01*
X129065714Y-111694819D02*
X128494286Y-111694819D01*
X128780000Y-111694819D02*
X128780000Y-110694819D01*
X128780000Y-110694819D02*
X128684762Y-110837676D01*
X128684762Y-110837676D02*
X128589524Y-110932914D01*
X128589524Y-110932914D02*
X128494286Y-110980533D01*
X130433333Y-111999580D02*
X130385714Y-112047200D01*
X130385714Y-112047200D02*
X130242857Y-112094819D01*
X130242857Y-112094819D02*
X130147619Y-112094819D01*
X130147619Y-112094819D02*
X130004762Y-112047200D01*
X130004762Y-112047200D02*
X129909524Y-111951961D01*
X129909524Y-111951961D02*
X129861905Y-111856723D01*
X129861905Y-111856723D02*
X129814286Y-111666247D01*
X129814286Y-111666247D02*
X129814286Y-111523390D01*
X129814286Y-111523390D02*
X129861905Y-111332914D01*
X129861905Y-111332914D02*
X129909524Y-111237676D01*
X129909524Y-111237676D02*
X130004762Y-111142438D01*
X130004762Y-111142438D02*
X130147619Y-111094819D01*
X130147619Y-111094819D02*
X130242857Y-111094819D01*
X130242857Y-111094819D02*
X130385714Y-111142438D01*
X130385714Y-111142438D02*
X130433333Y-111190057D01*
X130766667Y-111094819D02*
X131433333Y-111094819D01*
X131433333Y-111094819D02*
X131004762Y-112094819D01*
X113523809Y-127928628D02*
X113523809Y-128404819D01*
X113190476Y-127404819D02*
X113523809Y-127928628D01*
X113523809Y-127928628D02*
X113857142Y-127404819D01*
X114714285Y-128404819D02*
X114142857Y-128404819D01*
X114428571Y-128404819D02*
X114428571Y-127404819D01*
X114428571Y-127404819D02*
X114333333Y-127547676D01*
X114333333Y-127547676D02*
X114238095Y-127642914D01*
X114238095Y-127642914D02*
X114142857Y-127690533D01*
X107866666Y-90614819D02*
X107866666Y-91329104D01*
X107866666Y-91329104D02*
X107819047Y-91471961D01*
X107819047Y-91471961D02*
X107723809Y-91567200D01*
X107723809Y-91567200D02*
X107580952Y-91614819D01*
X107580952Y-91614819D02*
X107485714Y-91614819D01*
X108295238Y-90710057D02*
X108342857Y-90662438D01*
X108342857Y-90662438D02*
X108438095Y-90614819D01*
X108438095Y-90614819D02*
X108676190Y-90614819D01*
X108676190Y-90614819D02*
X108771428Y-90662438D01*
X108771428Y-90662438D02*
X108819047Y-90710057D01*
X108819047Y-90710057D02*
X108866666Y-90805295D01*
X108866666Y-90805295D02*
X108866666Y-90900533D01*
X108866666Y-90900533D02*
X108819047Y-91043390D01*
X108819047Y-91043390D02*
X108247619Y-91614819D01*
X108247619Y-91614819D02*
X108866666Y-91614819D01*
X124147142Y-104999580D02*
X124099523Y-105047200D01*
X124099523Y-105047200D02*
X123956666Y-105094819D01*
X123956666Y-105094819D02*
X123861428Y-105094819D01*
X123861428Y-105094819D02*
X123718571Y-105047200D01*
X123718571Y-105047200D02*
X123623333Y-104951961D01*
X123623333Y-104951961D02*
X123575714Y-104856723D01*
X123575714Y-104856723D02*
X123528095Y-104666247D01*
X123528095Y-104666247D02*
X123528095Y-104523390D01*
X123528095Y-104523390D02*
X123575714Y-104332914D01*
X123575714Y-104332914D02*
X123623333Y-104237676D01*
X123623333Y-104237676D02*
X123718571Y-104142438D01*
X123718571Y-104142438D02*
X123861428Y-104094819D01*
X123861428Y-104094819D02*
X123956666Y-104094819D01*
X123956666Y-104094819D02*
X124099523Y-104142438D01*
X124099523Y-104142438D02*
X124147142Y-104190057D01*
X125099523Y-105094819D02*
X124528095Y-105094819D01*
X124813809Y-105094819D02*
X124813809Y-104094819D01*
X124813809Y-104094819D02*
X124718571Y-104237676D01*
X124718571Y-104237676D02*
X124623333Y-104332914D01*
X124623333Y-104332914D02*
X124528095Y-104380533D01*
X125432857Y-104094819D02*
X126099523Y-104094819D01*
X126099523Y-104094819D02*
X125670952Y-105094819D01*
X128713333Y-107939580D02*
X128665714Y-107987200D01*
X128665714Y-107987200D02*
X128522857Y-108034819D01*
X128522857Y-108034819D02*
X128427619Y-108034819D01*
X128427619Y-108034819D02*
X128284762Y-107987200D01*
X128284762Y-107987200D02*
X128189524Y-107891961D01*
X128189524Y-107891961D02*
X128141905Y-107796723D01*
X128141905Y-107796723D02*
X128094286Y-107606247D01*
X128094286Y-107606247D02*
X128094286Y-107463390D01*
X128094286Y-107463390D02*
X128141905Y-107272914D01*
X128141905Y-107272914D02*
X128189524Y-107177676D01*
X128189524Y-107177676D02*
X128284762Y-107082438D01*
X128284762Y-107082438D02*
X128427619Y-107034819D01*
X128427619Y-107034819D02*
X128522857Y-107034819D01*
X128522857Y-107034819D02*
X128665714Y-107082438D01*
X128665714Y-107082438D02*
X128713333Y-107130057D01*
X129570476Y-107034819D02*
X129380000Y-107034819D01*
X129380000Y-107034819D02*
X129284762Y-107082438D01*
X129284762Y-107082438D02*
X129237143Y-107130057D01*
X129237143Y-107130057D02*
X129141905Y-107272914D01*
X129141905Y-107272914D02*
X129094286Y-107463390D01*
X129094286Y-107463390D02*
X129094286Y-107844342D01*
X129094286Y-107844342D02*
X129141905Y-107939580D01*
X129141905Y-107939580D02*
X129189524Y-107987200D01*
X129189524Y-107987200D02*
X129284762Y-108034819D01*
X129284762Y-108034819D02*
X129475238Y-108034819D01*
X129475238Y-108034819D02*
X129570476Y-107987200D01*
X129570476Y-107987200D02*
X129618095Y-107939580D01*
X129618095Y-107939580D02*
X129665714Y-107844342D01*
X129665714Y-107844342D02*
X129665714Y-107606247D01*
X129665714Y-107606247D02*
X129618095Y-107511009D01*
X129618095Y-107511009D02*
X129570476Y-107463390D01*
X129570476Y-107463390D02*
X129475238Y-107415771D01*
X129475238Y-107415771D02*
X129284762Y-107415771D01*
X129284762Y-107415771D02*
X129189524Y-107463390D01*
X129189524Y-107463390D02*
X129141905Y-107511009D01*
X129141905Y-107511009D02*
X129094286Y-107606247D01*
X130633333Y-113799580D02*
X130585714Y-113847200D01*
X130585714Y-113847200D02*
X130442857Y-113894819D01*
X130442857Y-113894819D02*
X130347619Y-113894819D01*
X130347619Y-113894819D02*
X130204762Y-113847200D01*
X130204762Y-113847200D02*
X130109524Y-113751961D01*
X130109524Y-113751961D02*
X130061905Y-113656723D01*
X130061905Y-113656723D02*
X130014286Y-113466247D01*
X130014286Y-113466247D02*
X130014286Y-113323390D01*
X130014286Y-113323390D02*
X130061905Y-113132914D01*
X130061905Y-113132914D02*
X130109524Y-113037676D01*
X130109524Y-113037676D02*
X130204762Y-112942438D01*
X130204762Y-112942438D02*
X130347619Y-112894819D01*
X130347619Y-112894819D02*
X130442857Y-112894819D01*
X130442857Y-112894819D02*
X130585714Y-112942438D01*
X130585714Y-112942438D02*
X130633333Y-112990057D01*
X131204762Y-113323390D02*
X131109524Y-113275771D01*
X131109524Y-113275771D02*
X131061905Y-113228152D01*
X131061905Y-113228152D02*
X131014286Y-113132914D01*
X131014286Y-113132914D02*
X131014286Y-113085295D01*
X131014286Y-113085295D02*
X131061905Y-112990057D01*
X131061905Y-112990057D02*
X131109524Y-112942438D01*
X131109524Y-112942438D02*
X131204762Y-112894819D01*
X131204762Y-112894819D02*
X131395238Y-112894819D01*
X131395238Y-112894819D02*
X131490476Y-112942438D01*
X131490476Y-112942438D02*
X131538095Y-112990057D01*
X131538095Y-112990057D02*
X131585714Y-113085295D01*
X131585714Y-113085295D02*
X131585714Y-113132914D01*
X131585714Y-113132914D02*
X131538095Y-113228152D01*
X131538095Y-113228152D02*
X131490476Y-113275771D01*
X131490476Y-113275771D02*
X131395238Y-113323390D01*
X131395238Y-113323390D02*
X131204762Y-113323390D01*
X131204762Y-113323390D02*
X131109524Y-113371009D01*
X131109524Y-113371009D02*
X131061905Y-113418628D01*
X131061905Y-113418628D02*
X131014286Y-113513866D01*
X131014286Y-113513866D02*
X131014286Y-113704342D01*
X131014286Y-113704342D02*
X131061905Y-113799580D01*
X131061905Y-113799580D02*
X131109524Y-113847200D01*
X131109524Y-113847200D02*
X131204762Y-113894819D01*
X131204762Y-113894819D02*
X131395238Y-113894819D01*
X131395238Y-113894819D02*
X131490476Y-113847200D01*
X131490476Y-113847200D02*
X131538095Y-113799580D01*
X131538095Y-113799580D02*
X131585714Y-113704342D01*
X131585714Y-113704342D02*
X131585714Y-113513866D01*
X131585714Y-113513866D02*
X131538095Y-113418628D01*
X131538095Y-113418628D02*
X131490476Y-113371009D01*
X131490476Y-113371009D02*
X131395238Y-113323390D01*
X112523333Y-115074819D02*
X112190000Y-114598628D01*
X111951905Y-115074819D02*
X111951905Y-114074819D01*
X111951905Y-114074819D02*
X112332857Y-114074819D01*
X112332857Y-114074819D02*
X112428095Y-114122438D01*
X112428095Y-114122438D02*
X112475714Y-114170057D01*
X112475714Y-114170057D02*
X112523333Y-114265295D01*
X112523333Y-114265295D02*
X112523333Y-114408152D01*
X112523333Y-114408152D02*
X112475714Y-114503390D01*
X112475714Y-114503390D02*
X112428095Y-114551009D01*
X112428095Y-114551009D02*
X112332857Y-114598628D01*
X112332857Y-114598628D02*
X111951905Y-114598628D01*
X113380476Y-114408152D02*
X113380476Y-115074819D01*
X113142381Y-114027200D02*
X112904286Y-114741485D01*
X112904286Y-114741485D02*
X113523333Y-114741485D01*
X118883333Y-104999580D02*
X118835714Y-105047200D01*
X118835714Y-105047200D02*
X118692857Y-105094819D01*
X118692857Y-105094819D02*
X118597619Y-105094819D01*
X118597619Y-105094819D02*
X118454762Y-105047200D01*
X118454762Y-105047200D02*
X118359524Y-104951961D01*
X118359524Y-104951961D02*
X118311905Y-104856723D01*
X118311905Y-104856723D02*
X118264286Y-104666247D01*
X118264286Y-104666247D02*
X118264286Y-104523390D01*
X118264286Y-104523390D02*
X118311905Y-104332914D01*
X118311905Y-104332914D02*
X118359524Y-104237676D01*
X118359524Y-104237676D02*
X118454762Y-104142438D01*
X118454762Y-104142438D02*
X118597619Y-104094819D01*
X118597619Y-104094819D02*
X118692857Y-104094819D01*
X118692857Y-104094819D02*
X118835714Y-104142438D01*
X118835714Y-104142438D02*
X118883333Y-104190057D01*
X119216667Y-104094819D02*
X119835714Y-104094819D01*
X119835714Y-104094819D02*
X119502381Y-104475771D01*
X119502381Y-104475771D02*
X119645238Y-104475771D01*
X119645238Y-104475771D02*
X119740476Y-104523390D01*
X119740476Y-104523390D02*
X119788095Y-104571009D01*
X119788095Y-104571009D02*
X119835714Y-104666247D01*
X119835714Y-104666247D02*
X119835714Y-104904342D01*
X119835714Y-104904342D02*
X119788095Y-104999580D01*
X119788095Y-104999580D02*
X119740476Y-105047200D01*
X119740476Y-105047200D02*
X119645238Y-105094819D01*
X119645238Y-105094819D02*
X119359524Y-105094819D01*
X119359524Y-105094819D02*
X119264286Y-105047200D01*
X119264286Y-105047200D02*
X119216667Y-104999580D01*
X131107142Y-105969580D02*
X131059523Y-106017200D01*
X131059523Y-106017200D02*
X130916666Y-106064819D01*
X130916666Y-106064819D02*
X130821428Y-106064819D01*
X130821428Y-106064819D02*
X130678571Y-106017200D01*
X130678571Y-106017200D02*
X130583333Y-105921961D01*
X130583333Y-105921961D02*
X130535714Y-105826723D01*
X130535714Y-105826723D02*
X130488095Y-105636247D01*
X130488095Y-105636247D02*
X130488095Y-105493390D01*
X130488095Y-105493390D02*
X130535714Y-105302914D01*
X130535714Y-105302914D02*
X130583333Y-105207676D01*
X130583333Y-105207676D02*
X130678571Y-105112438D01*
X130678571Y-105112438D02*
X130821428Y-105064819D01*
X130821428Y-105064819D02*
X130916666Y-105064819D01*
X130916666Y-105064819D02*
X131059523Y-105112438D01*
X131059523Y-105112438D02*
X131107142Y-105160057D01*
X132059523Y-106064819D02*
X131488095Y-106064819D01*
X131773809Y-106064819D02*
X131773809Y-105064819D01*
X131773809Y-105064819D02*
X131678571Y-105207676D01*
X131678571Y-105207676D02*
X131583333Y-105302914D01*
X131583333Y-105302914D02*
X131488095Y-105350533D01*
X133011904Y-106064819D02*
X132440476Y-106064819D01*
X132726190Y-106064819D02*
X132726190Y-105064819D01*
X132726190Y-105064819D02*
X132630952Y-105207676D01*
X132630952Y-105207676D02*
X132535714Y-105302914D01*
X132535714Y-105302914D02*
X132440476Y-105350533D01*
X112523333Y-113084819D02*
X112190000Y-112608628D01*
X111951905Y-113084819D02*
X111951905Y-112084819D01*
X111951905Y-112084819D02*
X112332857Y-112084819D01*
X112332857Y-112084819D02*
X112428095Y-112132438D01*
X112428095Y-112132438D02*
X112475714Y-112180057D01*
X112475714Y-112180057D02*
X112523333Y-112275295D01*
X112523333Y-112275295D02*
X112523333Y-112418152D01*
X112523333Y-112418152D02*
X112475714Y-112513390D01*
X112475714Y-112513390D02*
X112428095Y-112561009D01*
X112428095Y-112561009D02*
X112332857Y-112608628D01*
X112332857Y-112608628D02*
X111951905Y-112608628D01*
X112856667Y-112084819D02*
X113475714Y-112084819D01*
X113475714Y-112084819D02*
X113142381Y-112465771D01*
X113142381Y-112465771D02*
X113285238Y-112465771D01*
X113285238Y-112465771D02*
X113380476Y-112513390D01*
X113380476Y-112513390D02*
X113428095Y-112561009D01*
X113428095Y-112561009D02*
X113475714Y-112656247D01*
X113475714Y-112656247D02*
X113475714Y-112894342D01*
X113475714Y-112894342D02*
X113428095Y-112989580D01*
X113428095Y-112989580D02*
X113380476Y-113037200D01*
X113380476Y-113037200D02*
X113285238Y-113084819D01*
X113285238Y-113084819D02*
X112999524Y-113084819D01*
X112999524Y-113084819D02*
X112904286Y-113037200D01*
X112904286Y-113037200D02*
X112856667Y-112989580D01*
X117134819Y-141733333D02*
X117849104Y-141733333D01*
X117849104Y-141733333D02*
X117991961Y-141780952D01*
X117991961Y-141780952D02*
X118087200Y-141876190D01*
X118087200Y-141876190D02*
X118134819Y-142019047D01*
X118134819Y-142019047D02*
X118134819Y-142114285D01*
X117468152Y-140828571D02*
X118134819Y-140828571D01*
X117087200Y-141066666D02*
X117801485Y-141304761D01*
X117801485Y-141304761D02*
X117801485Y-140685714D01*
X122038095Y-111104819D02*
X122038095Y-111914342D01*
X122038095Y-111914342D02*
X122085714Y-112009580D01*
X122085714Y-112009580D02*
X122133333Y-112057200D01*
X122133333Y-112057200D02*
X122228571Y-112104819D01*
X122228571Y-112104819D02*
X122419047Y-112104819D01*
X122419047Y-112104819D02*
X122514285Y-112057200D01*
X122514285Y-112057200D02*
X122561904Y-112009580D01*
X122561904Y-112009580D02*
X122609523Y-111914342D01*
X122609523Y-111914342D02*
X122609523Y-111104819D01*
X122990476Y-111104819D02*
X123609523Y-111104819D01*
X123609523Y-111104819D02*
X123276190Y-111485771D01*
X123276190Y-111485771D02*
X123419047Y-111485771D01*
X123419047Y-111485771D02*
X123514285Y-111533390D01*
X123514285Y-111533390D02*
X123561904Y-111581009D01*
X123561904Y-111581009D02*
X123609523Y-111676247D01*
X123609523Y-111676247D02*
X123609523Y-111914342D01*
X123609523Y-111914342D02*
X123561904Y-112009580D01*
X123561904Y-112009580D02*
X123514285Y-112057200D01*
X123514285Y-112057200D02*
X123419047Y-112104819D01*
X123419047Y-112104819D02*
X123133333Y-112104819D01*
X123133333Y-112104819D02*
X123038095Y-112057200D01*
X123038095Y-112057200D02*
X122990476Y-112009580D01*
X121838095Y-115424819D02*
X121838095Y-116234342D01*
X121838095Y-116234342D02*
X121885714Y-116329580D01*
X121885714Y-116329580D02*
X121933333Y-116377200D01*
X121933333Y-116377200D02*
X122028571Y-116424819D01*
X122028571Y-116424819D02*
X122219047Y-116424819D01*
X122219047Y-116424819D02*
X122314285Y-116377200D01*
X122314285Y-116377200D02*
X122361904Y-116329580D01*
X122361904Y-116329580D02*
X122409523Y-116234342D01*
X122409523Y-116234342D02*
X122409523Y-115424819D01*
X123409523Y-116424819D02*
X122838095Y-116424819D01*
X123123809Y-116424819D02*
X123123809Y-115424819D01*
X123123809Y-115424819D02*
X123028571Y-115567676D01*
X123028571Y-115567676D02*
X122933333Y-115662914D01*
X122933333Y-115662914D02*
X122838095Y-115710533D01*
X112523333Y-121044819D02*
X112190000Y-120568628D01*
X111951905Y-121044819D02*
X111951905Y-120044819D01*
X111951905Y-120044819D02*
X112332857Y-120044819D01*
X112332857Y-120044819D02*
X112428095Y-120092438D01*
X112428095Y-120092438D02*
X112475714Y-120140057D01*
X112475714Y-120140057D02*
X112523333Y-120235295D01*
X112523333Y-120235295D02*
X112523333Y-120378152D01*
X112523333Y-120378152D02*
X112475714Y-120473390D01*
X112475714Y-120473390D02*
X112428095Y-120521009D01*
X112428095Y-120521009D02*
X112332857Y-120568628D01*
X112332857Y-120568628D02*
X111951905Y-120568628D01*
X112856667Y-120044819D02*
X113523333Y-120044819D01*
X113523333Y-120044819D02*
X113094762Y-121044819D01*
X130100595Y-119254819D02*
X130100595Y-120064342D01*
X130100595Y-120064342D02*
X130148214Y-120159580D01*
X130148214Y-120159580D02*
X130195833Y-120207200D01*
X130195833Y-120207200D02*
X130291071Y-120254819D01*
X130291071Y-120254819D02*
X130481547Y-120254819D01*
X130481547Y-120254819D02*
X130576785Y-120207200D01*
X130576785Y-120207200D02*
X130624404Y-120159580D01*
X130624404Y-120159580D02*
X130672023Y-120064342D01*
X130672023Y-120064342D02*
X130672023Y-119254819D01*
X131100595Y-119350057D02*
X131148214Y-119302438D01*
X131148214Y-119302438D02*
X131243452Y-119254819D01*
X131243452Y-119254819D02*
X131481547Y-119254819D01*
X131481547Y-119254819D02*
X131576785Y-119302438D01*
X131576785Y-119302438D02*
X131624404Y-119350057D01*
X131624404Y-119350057D02*
X131672023Y-119445295D01*
X131672023Y-119445295D02*
X131672023Y-119540533D01*
X131672023Y-119540533D02*
X131624404Y-119683390D01*
X131624404Y-119683390D02*
X131052976Y-120254819D01*
X131052976Y-120254819D02*
X131672023Y-120254819D01*
X132357142Y-111799580D02*
X132309523Y-111847200D01*
X132309523Y-111847200D02*
X132166666Y-111894819D01*
X132166666Y-111894819D02*
X132071428Y-111894819D01*
X132071428Y-111894819D02*
X131928571Y-111847200D01*
X131928571Y-111847200D02*
X131833333Y-111751961D01*
X131833333Y-111751961D02*
X131785714Y-111656723D01*
X131785714Y-111656723D02*
X131738095Y-111466247D01*
X131738095Y-111466247D02*
X131738095Y-111323390D01*
X131738095Y-111323390D02*
X131785714Y-111132914D01*
X131785714Y-111132914D02*
X131833333Y-111037676D01*
X131833333Y-111037676D02*
X131928571Y-110942438D01*
X131928571Y-110942438D02*
X132071428Y-110894819D01*
X132071428Y-110894819D02*
X132166666Y-110894819D01*
X132166666Y-110894819D02*
X132309523Y-110942438D01*
X132309523Y-110942438D02*
X132357142Y-110990057D01*
X133309523Y-111894819D02*
X132738095Y-111894819D01*
X133023809Y-111894819D02*
X133023809Y-110894819D01*
X133023809Y-110894819D02*
X132928571Y-111037676D01*
X132928571Y-111037676D02*
X132833333Y-111132914D01*
X132833333Y-111132914D02*
X132738095Y-111180533D01*
X134214285Y-110894819D02*
X133738095Y-110894819D01*
X133738095Y-110894819D02*
X133690476Y-111371009D01*
X133690476Y-111371009D02*
X133738095Y-111323390D01*
X133738095Y-111323390D02*
X133833333Y-111275771D01*
X133833333Y-111275771D02*
X134071428Y-111275771D01*
X134071428Y-111275771D02*
X134166666Y-111323390D01*
X134166666Y-111323390D02*
X134214285Y-111371009D01*
X134214285Y-111371009D02*
X134261904Y-111466247D01*
X134261904Y-111466247D02*
X134261904Y-111704342D01*
X134261904Y-111704342D02*
X134214285Y-111799580D01*
X134214285Y-111799580D02*
X134166666Y-111847200D01*
X134166666Y-111847200D02*
X134071428Y-111894819D01*
X134071428Y-111894819D02*
X133833333Y-111894819D01*
X133833333Y-111894819D02*
X133738095Y-111847200D01*
X133738095Y-111847200D02*
X133690476Y-111799580D01*
X135666666Y-90954819D02*
X135666666Y-91669104D01*
X135666666Y-91669104D02*
X135619047Y-91811961D01*
X135619047Y-91811961D02*
X135523809Y-91907200D01*
X135523809Y-91907200D02*
X135380952Y-91954819D01*
X135380952Y-91954819D02*
X135285714Y-91954819D01*
X136047619Y-90954819D02*
X136666666Y-90954819D01*
X136666666Y-90954819D02*
X136333333Y-91335771D01*
X136333333Y-91335771D02*
X136476190Y-91335771D01*
X136476190Y-91335771D02*
X136571428Y-91383390D01*
X136571428Y-91383390D02*
X136619047Y-91431009D01*
X136619047Y-91431009D02*
X136666666Y-91526247D01*
X136666666Y-91526247D02*
X136666666Y-91764342D01*
X136666666Y-91764342D02*
X136619047Y-91859580D01*
X136619047Y-91859580D02*
X136571428Y-91907200D01*
X136571428Y-91907200D02*
X136476190Y-91954819D01*
X136476190Y-91954819D02*
X136190476Y-91954819D01*
X136190476Y-91954819D02*
X136095238Y-91907200D01*
X136095238Y-91907200D02*
X136047619Y-91859580D01*
X115982142Y-119929580D02*
X115934523Y-119977200D01*
X115934523Y-119977200D02*
X115791666Y-120024819D01*
X115791666Y-120024819D02*
X115696428Y-120024819D01*
X115696428Y-120024819D02*
X115553571Y-119977200D01*
X115553571Y-119977200D02*
X115458333Y-119881961D01*
X115458333Y-119881961D02*
X115410714Y-119786723D01*
X115410714Y-119786723D02*
X115363095Y-119596247D01*
X115363095Y-119596247D02*
X115363095Y-119453390D01*
X115363095Y-119453390D02*
X115410714Y-119262914D01*
X115410714Y-119262914D02*
X115458333Y-119167676D01*
X115458333Y-119167676D02*
X115553571Y-119072438D01*
X115553571Y-119072438D02*
X115696428Y-119024819D01*
X115696428Y-119024819D02*
X115791666Y-119024819D01*
X115791666Y-119024819D02*
X115934523Y-119072438D01*
X115934523Y-119072438D02*
X115982142Y-119120057D01*
X116934523Y-120024819D02*
X116363095Y-120024819D01*
X116648809Y-120024819D02*
X116648809Y-119024819D01*
X116648809Y-119024819D02*
X116553571Y-119167676D01*
X116553571Y-119167676D02*
X116458333Y-119262914D01*
X116458333Y-119262914D02*
X116363095Y-119310533D01*
X117267857Y-119024819D02*
X117886904Y-119024819D01*
X117886904Y-119024819D02*
X117553571Y-119405771D01*
X117553571Y-119405771D02*
X117696428Y-119405771D01*
X117696428Y-119405771D02*
X117791666Y-119453390D01*
X117791666Y-119453390D02*
X117839285Y-119501009D01*
X117839285Y-119501009D02*
X117886904Y-119596247D01*
X117886904Y-119596247D02*
X117886904Y-119834342D01*
X117886904Y-119834342D02*
X117839285Y-119929580D01*
X117839285Y-119929580D02*
X117791666Y-119977200D01*
X117791666Y-119977200D02*
X117696428Y-120024819D01*
X117696428Y-120024819D02*
X117410714Y-120024819D01*
X117410714Y-120024819D02*
X117315476Y-119977200D01*
X117315476Y-119977200D02*
X117267857Y-119929580D01*
X112523333Y-111094819D02*
X112190000Y-110618628D01*
X111951905Y-111094819D02*
X111951905Y-110094819D01*
X111951905Y-110094819D02*
X112332857Y-110094819D01*
X112332857Y-110094819D02*
X112428095Y-110142438D01*
X112428095Y-110142438D02*
X112475714Y-110190057D01*
X112475714Y-110190057D02*
X112523333Y-110285295D01*
X112523333Y-110285295D02*
X112523333Y-110428152D01*
X112523333Y-110428152D02*
X112475714Y-110523390D01*
X112475714Y-110523390D02*
X112428095Y-110571009D01*
X112428095Y-110571009D02*
X112332857Y-110618628D01*
X112332857Y-110618628D02*
X111951905Y-110618628D01*
X112904286Y-110190057D02*
X112951905Y-110142438D01*
X112951905Y-110142438D02*
X113047143Y-110094819D01*
X113047143Y-110094819D02*
X113285238Y-110094819D01*
X113285238Y-110094819D02*
X113380476Y-110142438D01*
X113380476Y-110142438D02*
X113428095Y-110190057D01*
X113428095Y-110190057D02*
X113475714Y-110285295D01*
X113475714Y-110285295D02*
X113475714Y-110380533D01*
X113475714Y-110380533D02*
X113428095Y-110523390D01*
X113428095Y-110523390D02*
X112856667Y-111094819D01*
X112856667Y-111094819D02*
X113475714Y-111094819D01*
X132557142Y-113999580D02*
X132509523Y-114047200D01*
X132509523Y-114047200D02*
X132366666Y-114094819D01*
X132366666Y-114094819D02*
X132271428Y-114094819D01*
X132271428Y-114094819D02*
X132128571Y-114047200D01*
X132128571Y-114047200D02*
X132033333Y-113951961D01*
X132033333Y-113951961D02*
X131985714Y-113856723D01*
X131985714Y-113856723D02*
X131938095Y-113666247D01*
X131938095Y-113666247D02*
X131938095Y-113523390D01*
X131938095Y-113523390D02*
X131985714Y-113332914D01*
X131985714Y-113332914D02*
X132033333Y-113237676D01*
X132033333Y-113237676D02*
X132128571Y-113142438D01*
X132128571Y-113142438D02*
X132271428Y-113094819D01*
X132271428Y-113094819D02*
X132366666Y-113094819D01*
X132366666Y-113094819D02*
X132509523Y-113142438D01*
X132509523Y-113142438D02*
X132557142Y-113190057D01*
X133509523Y-114094819D02*
X132938095Y-114094819D01*
X133223809Y-114094819D02*
X133223809Y-113094819D01*
X133223809Y-113094819D02*
X133128571Y-113237676D01*
X133128571Y-113237676D02*
X133033333Y-113332914D01*
X133033333Y-113332914D02*
X132938095Y-113380533D01*
X134366666Y-113094819D02*
X134176190Y-113094819D01*
X134176190Y-113094819D02*
X134080952Y-113142438D01*
X134080952Y-113142438D02*
X134033333Y-113190057D01*
X134033333Y-113190057D02*
X133938095Y-113332914D01*
X133938095Y-113332914D02*
X133890476Y-113523390D01*
X133890476Y-113523390D02*
X133890476Y-113904342D01*
X133890476Y-113904342D02*
X133938095Y-113999580D01*
X133938095Y-113999580D02*
X133985714Y-114047200D01*
X133985714Y-114047200D02*
X134080952Y-114094819D01*
X134080952Y-114094819D02*
X134271428Y-114094819D01*
X134271428Y-114094819D02*
X134366666Y-114047200D01*
X134366666Y-114047200D02*
X134414285Y-113999580D01*
X134414285Y-113999580D02*
X134461904Y-113904342D01*
X134461904Y-113904342D02*
X134461904Y-113666247D01*
X134461904Y-113666247D02*
X134414285Y-113571009D01*
X134414285Y-113571009D02*
X134366666Y-113523390D01*
X134366666Y-113523390D02*
X134271428Y-113475771D01*
X134271428Y-113475771D02*
X134080952Y-113475771D01*
X134080952Y-113475771D02*
X133985714Y-113523390D01*
X133985714Y-113523390D02*
X133938095Y-113571009D01*
X133938095Y-113571009D02*
X133890476Y-113666247D01*
X131107142Y-107939580D02*
X131059523Y-107987200D01*
X131059523Y-107987200D02*
X130916666Y-108034819D01*
X130916666Y-108034819D02*
X130821428Y-108034819D01*
X130821428Y-108034819D02*
X130678571Y-107987200D01*
X130678571Y-107987200D02*
X130583333Y-107891961D01*
X130583333Y-107891961D02*
X130535714Y-107796723D01*
X130535714Y-107796723D02*
X130488095Y-107606247D01*
X130488095Y-107606247D02*
X130488095Y-107463390D01*
X130488095Y-107463390D02*
X130535714Y-107272914D01*
X130535714Y-107272914D02*
X130583333Y-107177676D01*
X130583333Y-107177676D02*
X130678571Y-107082438D01*
X130678571Y-107082438D02*
X130821428Y-107034819D01*
X130821428Y-107034819D02*
X130916666Y-107034819D01*
X130916666Y-107034819D02*
X131059523Y-107082438D01*
X131059523Y-107082438D02*
X131107142Y-107130057D01*
X132059523Y-108034819D02*
X131488095Y-108034819D01*
X131773809Y-108034819D02*
X131773809Y-107034819D01*
X131773809Y-107034819D02*
X131678571Y-107177676D01*
X131678571Y-107177676D02*
X131583333Y-107272914D01*
X131583333Y-107272914D02*
X131488095Y-107320533D01*
X132440476Y-107130057D02*
X132488095Y-107082438D01*
X132488095Y-107082438D02*
X132583333Y-107034819D01*
X132583333Y-107034819D02*
X132821428Y-107034819D01*
X132821428Y-107034819D02*
X132916666Y-107082438D01*
X132916666Y-107082438D02*
X132964285Y-107130057D01*
X132964285Y-107130057D02*
X133011904Y-107225295D01*
X133011904Y-107225295D02*
X133011904Y-107320533D01*
X133011904Y-107320533D02*
X132964285Y-107463390D01*
X132964285Y-107463390D02*
X132392857Y-108034819D01*
X132392857Y-108034819D02*
X133011904Y-108034819D01*
X131107142Y-103999580D02*
X131059523Y-104047200D01*
X131059523Y-104047200D02*
X130916666Y-104094819D01*
X130916666Y-104094819D02*
X130821428Y-104094819D01*
X130821428Y-104094819D02*
X130678571Y-104047200D01*
X130678571Y-104047200D02*
X130583333Y-103951961D01*
X130583333Y-103951961D02*
X130535714Y-103856723D01*
X130535714Y-103856723D02*
X130488095Y-103666247D01*
X130488095Y-103666247D02*
X130488095Y-103523390D01*
X130488095Y-103523390D02*
X130535714Y-103332914D01*
X130535714Y-103332914D02*
X130583333Y-103237676D01*
X130583333Y-103237676D02*
X130678571Y-103142438D01*
X130678571Y-103142438D02*
X130821428Y-103094819D01*
X130821428Y-103094819D02*
X130916666Y-103094819D01*
X130916666Y-103094819D02*
X131059523Y-103142438D01*
X131059523Y-103142438D02*
X131107142Y-103190057D01*
X132059523Y-104094819D02*
X131488095Y-104094819D01*
X131773809Y-104094819D02*
X131773809Y-103094819D01*
X131773809Y-103094819D02*
X131678571Y-103237676D01*
X131678571Y-103237676D02*
X131583333Y-103332914D01*
X131583333Y-103332914D02*
X131488095Y-103380533D01*
X132678571Y-103094819D02*
X132773809Y-103094819D01*
X132773809Y-103094819D02*
X132869047Y-103142438D01*
X132869047Y-103142438D02*
X132916666Y-103190057D01*
X132916666Y-103190057D02*
X132964285Y-103285295D01*
X132964285Y-103285295D02*
X133011904Y-103475771D01*
X133011904Y-103475771D02*
X133011904Y-103713866D01*
X133011904Y-103713866D02*
X132964285Y-103904342D01*
X132964285Y-103904342D02*
X132916666Y-103999580D01*
X132916666Y-103999580D02*
X132869047Y-104047200D01*
X132869047Y-104047200D02*
X132773809Y-104094819D01*
X132773809Y-104094819D02*
X132678571Y-104094819D01*
X132678571Y-104094819D02*
X132583333Y-104047200D01*
X132583333Y-104047200D02*
X132535714Y-103999580D01*
X132535714Y-103999580D02*
X132488095Y-103904342D01*
X132488095Y-103904342D02*
X132440476Y-103713866D01*
X132440476Y-103713866D02*
X132440476Y-103475771D01*
X132440476Y-103475771D02*
X132488095Y-103285295D01*
X132488095Y-103285295D02*
X132535714Y-103190057D01*
X132535714Y-103190057D02*
X132583333Y-103142438D01*
X132583333Y-103142438D02*
X132678571Y-103094819D01*
X112523333Y-109104819D02*
X112190000Y-108628628D01*
X111951905Y-109104819D02*
X111951905Y-108104819D01*
X111951905Y-108104819D02*
X112332857Y-108104819D01*
X112332857Y-108104819D02*
X112428095Y-108152438D01*
X112428095Y-108152438D02*
X112475714Y-108200057D01*
X112475714Y-108200057D02*
X112523333Y-108295295D01*
X112523333Y-108295295D02*
X112523333Y-108438152D01*
X112523333Y-108438152D02*
X112475714Y-108533390D01*
X112475714Y-108533390D02*
X112428095Y-108581009D01*
X112428095Y-108581009D02*
X112332857Y-108628628D01*
X112332857Y-108628628D02*
X111951905Y-108628628D01*
X113475714Y-109104819D02*
X112904286Y-109104819D01*
X113190000Y-109104819D02*
X113190000Y-108104819D01*
X113190000Y-108104819D02*
X113094762Y-108247676D01*
X113094762Y-108247676D02*
X112999524Y-108342914D01*
X112999524Y-108342914D02*
X112904286Y-108390533D01*
X128713333Y-105969580D02*
X128665714Y-106017200D01*
X128665714Y-106017200D02*
X128522857Y-106064819D01*
X128522857Y-106064819D02*
X128427619Y-106064819D01*
X128427619Y-106064819D02*
X128284762Y-106017200D01*
X128284762Y-106017200D02*
X128189524Y-105921961D01*
X128189524Y-105921961D02*
X128141905Y-105826723D01*
X128141905Y-105826723D02*
X128094286Y-105636247D01*
X128094286Y-105636247D02*
X128094286Y-105493390D01*
X128094286Y-105493390D02*
X128141905Y-105302914D01*
X128141905Y-105302914D02*
X128189524Y-105207676D01*
X128189524Y-105207676D02*
X128284762Y-105112438D01*
X128284762Y-105112438D02*
X128427619Y-105064819D01*
X128427619Y-105064819D02*
X128522857Y-105064819D01*
X128522857Y-105064819D02*
X128665714Y-105112438D01*
X128665714Y-105112438D02*
X128713333Y-105160057D01*
X129618095Y-105064819D02*
X129141905Y-105064819D01*
X129141905Y-105064819D02*
X129094286Y-105541009D01*
X129094286Y-105541009D02*
X129141905Y-105493390D01*
X129141905Y-105493390D02*
X129237143Y-105445771D01*
X129237143Y-105445771D02*
X129475238Y-105445771D01*
X129475238Y-105445771D02*
X129570476Y-105493390D01*
X129570476Y-105493390D02*
X129618095Y-105541009D01*
X129618095Y-105541009D02*
X129665714Y-105636247D01*
X129665714Y-105636247D02*
X129665714Y-105874342D01*
X129665714Y-105874342D02*
X129618095Y-105969580D01*
X129618095Y-105969580D02*
X129570476Y-106017200D01*
X129570476Y-106017200D02*
X129475238Y-106064819D01*
X129475238Y-106064819D02*
X129237143Y-106064819D01*
X129237143Y-106064819D02*
X129141905Y-106017200D01*
X129141905Y-106017200D02*
X129094286Y-105969580D01*
X128113333Y-114199580D02*
X128065714Y-114247200D01*
X128065714Y-114247200D02*
X127922857Y-114294819D01*
X127922857Y-114294819D02*
X127827619Y-114294819D01*
X127827619Y-114294819D02*
X127684762Y-114247200D01*
X127684762Y-114247200D02*
X127589524Y-114151961D01*
X127589524Y-114151961D02*
X127541905Y-114056723D01*
X127541905Y-114056723D02*
X127494286Y-113866247D01*
X127494286Y-113866247D02*
X127494286Y-113723390D01*
X127494286Y-113723390D02*
X127541905Y-113532914D01*
X127541905Y-113532914D02*
X127589524Y-113437676D01*
X127589524Y-113437676D02*
X127684762Y-113342438D01*
X127684762Y-113342438D02*
X127827619Y-113294819D01*
X127827619Y-113294819D02*
X127922857Y-113294819D01*
X127922857Y-113294819D02*
X128065714Y-113342438D01*
X128065714Y-113342438D02*
X128113333Y-113390057D01*
X128494286Y-113390057D02*
X128541905Y-113342438D01*
X128541905Y-113342438D02*
X128637143Y-113294819D01*
X128637143Y-113294819D02*
X128875238Y-113294819D01*
X128875238Y-113294819D02*
X128970476Y-113342438D01*
X128970476Y-113342438D02*
X129018095Y-113390057D01*
X129018095Y-113390057D02*
X129065714Y-113485295D01*
X129065714Y-113485295D02*
X129065714Y-113580533D01*
X129065714Y-113580533D02*
X129018095Y-113723390D01*
X129018095Y-113723390D02*
X128446667Y-114294819D01*
X128446667Y-114294819D02*
X129065714Y-114294819D01*
X128713333Y-103999580D02*
X128665714Y-104047200D01*
X128665714Y-104047200D02*
X128522857Y-104094819D01*
X128522857Y-104094819D02*
X128427619Y-104094819D01*
X128427619Y-104094819D02*
X128284762Y-104047200D01*
X128284762Y-104047200D02*
X128189524Y-103951961D01*
X128189524Y-103951961D02*
X128141905Y-103856723D01*
X128141905Y-103856723D02*
X128094286Y-103666247D01*
X128094286Y-103666247D02*
X128094286Y-103523390D01*
X128094286Y-103523390D02*
X128141905Y-103332914D01*
X128141905Y-103332914D02*
X128189524Y-103237676D01*
X128189524Y-103237676D02*
X128284762Y-103142438D01*
X128284762Y-103142438D02*
X128427619Y-103094819D01*
X128427619Y-103094819D02*
X128522857Y-103094819D01*
X128522857Y-103094819D02*
X128665714Y-103142438D01*
X128665714Y-103142438D02*
X128713333Y-103190057D01*
X129570476Y-103428152D02*
X129570476Y-104094819D01*
X129332381Y-103047200D02*
X129094286Y-103761485D01*
X129094286Y-103761485D02*
X129713333Y-103761485D01*
X112523333Y-117064819D02*
X112190000Y-116588628D01*
X111951905Y-117064819D02*
X111951905Y-116064819D01*
X111951905Y-116064819D02*
X112332857Y-116064819D01*
X112332857Y-116064819D02*
X112428095Y-116112438D01*
X112428095Y-116112438D02*
X112475714Y-116160057D01*
X112475714Y-116160057D02*
X112523333Y-116255295D01*
X112523333Y-116255295D02*
X112523333Y-116398152D01*
X112523333Y-116398152D02*
X112475714Y-116493390D01*
X112475714Y-116493390D02*
X112428095Y-116541009D01*
X112428095Y-116541009D02*
X112332857Y-116588628D01*
X112332857Y-116588628D02*
X111951905Y-116588628D01*
X113428095Y-116064819D02*
X112951905Y-116064819D01*
X112951905Y-116064819D02*
X112904286Y-116541009D01*
X112904286Y-116541009D02*
X112951905Y-116493390D01*
X112951905Y-116493390D02*
X113047143Y-116445771D01*
X113047143Y-116445771D02*
X113285238Y-116445771D01*
X113285238Y-116445771D02*
X113380476Y-116493390D01*
X113380476Y-116493390D02*
X113428095Y-116541009D01*
X113428095Y-116541009D02*
X113475714Y-116636247D01*
X113475714Y-116636247D02*
X113475714Y-116874342D01*
X113475714Y-116874342D02*
X113428095Y-116969580D01*
X113428095Y-116969580D02*
X113380476Y-117017200D01*
X113380476Y-117017200D02*
X113285238Y-117064819D01*
X113285238Y-117064819D02*
X113047143Y-117064819D01*
X113047143Y-117064819D02*
X112951905Y-117017200D01*
X112951905Y-117017200D02*
X112904286Y-116969580D01*
X115582142Y-122129580D02*
X115534523Y-122177200D01*
X115534523Y-122177200D02*
X115391666Y-122224819D01*
X115391666Y-122224819D02*
X115296428Y-122224819D01*
X115296428Y-122224819D02*
X115153571Y-122177200D01*
X115153571Y-122177200D02*
X115058333Y-122081961D01*
X115058333Y-122081961D02*
X115010714Y-121986723D01*
X115010714Y-121986723D02*
X114963095Y-121796247D01*
X114963095Y-121796247D02*
X114963095Y-121653390D01*
X114963095Y-121653390D02*
X115010714Y-121462914D01*
X115010714Y-121462914D02*
X115058333Y-121367676D01*
X115058333Y-121367676D02*
X115153571Y-121272438D01*
X115153571Y-121272438D02*
X115296428Y-121224819D01*
X115296428Y-121224819D02*
X115391666Y-121224819D01*
X115391666Y-121224819D02*
X115534523Y-121272438D01*
X115534523Y-121272438D02*
X115582142Y-121320057D01*
X116534523Y-122224819D02*
X115963095Y-122224819D01*
X116248809Y-122224819D02*
X116248809Y-121224819D01*
X116248809Y-121224819D02*
X116153571Y-121367676D01*
X116153571Y-121367676D02*
X116058333Y-121462914D01*
X116058333Y-121462914D02*
X115963095Y-121510533D01*
X117391666Y-121558152D02*
X117391666Y-122224819D01*
X117153571Y-121177200D02*
X116915476Y-121891485D01*
X116915476Y-121891485D02*
X117534523Y-121891485D01*
X124286667Y-125367200D02*
X124429524Y-125414819D01*
X124429524Y-125414819D02*
X124667619Y-125414819D01*
X124667619Y-125414819D02*
X124762857Y-125367200D01*
X124762857Y-125367200D02*
X124810476Y-125319580D01*
X124810476Y-125319580D02*
X124858095Y-125224342D01*
X124858095Y-125224342D02*
X124858095Y-125129104D01*
X124858095Y-125129104D02*
X124810476Y-125033866D01*
X124810476Y-125033866D02*
X124762857Y-124986247D01*
X124762857Y-124986247D02*
X124667619Y-124938628D01*
X124667619Y-124938628D02*
X124477143Y-124891009D01*
X124477143Y-124891009D02*
X124381905Y-124843390D01*
X124381905Y-124843390D02*
X124334286Y-124795771D01*
X124334286Y-124795771D02*
X124286667Y-124700533D01*
X124286667Y-124700533D02*
X124286667Y-124605295D01*
X124286667Y-124605295D02*
X124334286Y-124510057D01*
X124334286Y-124510057D02*
X124381905Y-124462438D01*
X124381905Y-124462438D02*
X124477143Y-124414819D01*
X124477143Y-124414819D02*
X124715238Y-124414819D01*
X124715238Y-124414819D02*
X124858095Y-124462438D01*
X125191429Y-124414819D02*
X125429524Y-125414819D01*
X125429524Y-125414819D02*
X125620000Y-124700533D01*
X125620000Y-124700533D02*
X125810476Y-125414819D01*
X125810476Y-125414819D02*
X126048572Y-124414819D01*
X126953333Y-125414819D02*
X126381905Y-125414819D01*
X126667619Y-125414819D02*
X126667619Y-124414819D01*
X126667619Y-124414819D02*
X126572381Y-124557676D01*
X126572381Y-124557676D02*
X126477143Y-124652914D01*
X126477143Y-124652914D02*
X126381905Y-124700533D01*
X128366666Y-106239819D02*
X128366666Y-106954104D01*
X128366666Y-106954104D02*
X128319047Y-107096961D01*
X128319047Y-107096961D02*
X128223809Y-107192200D01*
X128223809Y-107192200D02*
X128080952Y-107239819D01*
X128080952Y-107239819D02*
X127985714Y-107239819D01*
X129366666Y-107239819D02*
X128795238Y-107239819D01*
X129080952Y-107239819D02*
X129080952Y-106239819D01*
X129080952Y-106239819D02*
X128985714Y-106382676D01*
X128985714Y-106382676D02*
X128890476Y-106477914D01*
X128890476Y-106477914D02*
X128795238Y-106525533D01*
X121753333Y-104999580D02*
X121705714Y-105047200D01*
X121705714Y-105047200D02*
X121562857Y-105094819D01*
X121562857Y-105094819D02*
X121467619Y-105094819D01*
X121467619Y-105094819D02*
X121324762Y-105047200D01*
X121324762Y-105047200D02*
X121229524Y-104951961D01*
X121229524Y-104951961D02*
X121181905Y-104856723D01*
X121181905Y-104856723D02*
X121134286Y-104666247D01*
X121134286Y-104666247D02*
X121134286Y-104523390D01*
X121134286Y-104523390D02*
X121181905Y-104332914D01*
X121181905Y-104332914D02*
X121229524Y-104237676D01*
X121229524Y-104237676D02*
X121324762Y-104142438D01*
X121324762Y-104142438D02*
X121467619Y-104094819D01*
X121467619Y-104094819D02*
X121562857Y-104094819D01*
X121562857Y-104094819D02*
X121705714Y-104142438D01*
X121705714Y-104142438D02*
X121753333Y-104190057D01*
X122229524Y-105094819D02*
X122420000Y-105094819D01*
X122420000Y-105094819D02*
X122515238Y-105047200D01*
X122515238Y-105047200D02*
X122562857Y-104999580D01*
X122562857Y-104999580D02*
X122658095Y-104856723D01*
X122658095Y-104856723D02*
X122705714Y-104666247D01*
X122705714Y-104666247D02*
X122705714Y-104285295D01*
X122705714Y-104285295D02*
X122658095Y-104190057D01*
X122658095Y-104190057D02*
X122610476Y-104142438D01*
X122610476Y-104142438D02*
X122515238Y-104094819D01*
X122515238Y-104094819D02*
X122324762Y-104094819D01*
X122324762Y-104094819D02*
X122229524Y-104142438D01*
X122229524Y-104142438D02*
X122181905Y-104190057D01*
X122181905Y-104190057D02*
X122134286Y-104285295D01*
X122134286Y-104285295D02*
X122134286Y-104523390D01*
X122134286Y-104523390D02*
X122181905Y-104618628D01*
X122181905Y-104618628D02*
X122229524Y-104666247D01*
X122229524Y-104666247D02*
X122324762Y-104713866D01*
X122324762Y-104713866D02*
X122515238Y-104713866D01*
X122515238Y-104713866D02*
X122610476Y-104666247D01*
X122610476Y-104666247D02*
X122658095Y-104618628D01*
X122658095Y-104618628D02*
X122705714Y-104523390D01*
X112523333Y-119054819D02*
X112190000Y-118578628D01*
X111951905Y-119054819D02*
X111951905Y-118054819D01*
X111951905Y-118054819D02*
X112332857Y-118054819D01*
X112332857Y-118054819D02*
X112428095Y-118102438D01*
X112428095Y-118102438D02*
X112475714Y-118150057D01*
X112475714Y-118150057D02*
X112523333Y-118245295D01*
X112523333Y-118245295D02*
X112523333Y-118388152D01*
X112523333Y-118388152D02*
X112475714Y-118483390D01*
X112475714Y-118483390D02*
X112428095Y-118531009D01*
X112428095Y-118531009D02*
X112332857Y-118578628D01*
X112332857Y-118578628D02*
X111951905Y-118578628D01*
X113380476Y-118054819D02*
X113190000Y-118054819D01*
X113190000Y-118054819D02*
X113094762Y-118102438D01*
X113094762Y-118102438D02*
X113047143Y-118150057D01*
X113047143Y-118150057D02*
X112951905Y-118292914D01*
X112951905Y-118292914D02*
X112904286Y-118483390D01*
X112904286Y-118483390D02*
X112904286Y-118864342D01*
X112904286Y-118864342D02*
X112951905Y-118959580D01*
X112951905Y-118959580D02*
X112999524Y-119007200D01*
X112999524Y-119007200D02*
X113094762Y-119054819D01*
X113094762Y-119054819D02*
X113285238Y-119054819D01*
X113285238Y-119054819D02*
X113380476Y-119007200D01*
X113380476Y-119007200D02*
X113428095Y-118959580D01*
X113428095Y-118959580D02*
X113475714Y-118864342D01*
X113475714Y-118864342D02*
X113475714Y-118626247D01*
X113475714Y-118626247D02*
X113428095Y-118531009D01*
X113428095Y-118531009D02*
X113380476Y-118483390D01*
X113380476Y-118483390D02*
X113285238Y-118435771D01*
X113285238Y-118435771D02*
X113094762Y-118435771D01*
X113094762Y-118435771D02*
X112999524Y-118483390D01*
X112999524Y-118483390D02*
X112951905Y-118531009D01*
X112951905Y-118531009D02*
X112904286Y-118626247D01*
%TO.C,C1*%
D12*
X128172164Y-112760000D02*
X128387836Y-112760000D01*
X128172164Y-112040000D02*
X128387836Y-112040000D01*
%TO.C,C7*%
X130492164Y-113160000D02*
X130707836Y-113160000D01*
X130492164Y-112440000D02*
X130707836Y-112440000D01*
%TO.C,Y1*%
X111940000Y-132110000D02*
X116060000Y-132110000D01*
X111940000Y-128690000D02*
X111940000Y-132110000D01*
%TO.C,J2*%
X109580000Y-94810000D02*
X109580000Y-143180000D01*
X106820000Y-143180000D02*
X109580000Y-143180000D01*
X106820000Y-94810000D02*
X109580000Y-94810000D01*
X106820000Y-94810000D02*
X106820000Y-143180000D01*
X106820000Y-93540000D02*
X106820000Y-92160000D01*
X106820000Y-92160000D02*
X108200000Y-92160000D01*
%TO.C,C17*%
X124682164Y-105440000D02*
X124897836Y-105440000D01*
X124682164Y-106160000D02*
X124897836Y-106160000D01*
%TO.C,C6*%
X128772164Y-108380000D02*
X128987836Y-108380000D01*
X128772164Y-109100000D02*
X128987836Y-109100000D01*
%TO.C,C8*%
X130692164Y-114240000D02*
X130907836Y-114240000D01*
X130692164Y-114960000D02*
X130907836Y-114960000D01*
%TO.C,R4*%
X112536359Y-115410000D02*
X112843641Y-115410000D01*
X112536359Y-116170000D02*
X112843641Y-116170000D01*
%TO.C,C3*%
X118942164Y-105440000D02*
X119157836Y-105440000D01*
X118942164Y-106160000D02*
X119157836Y-106160000D01*
%TO.C,C11*%
X131642164Y-106410000D02*
X131857836Y-106410000D01*
X131642164Y-107130000D02*
X131857836Y-107130000D01*
%TO.C,R3*%
X112536359Y-113420000D02*
X112843641Y-113420000D01*
X112536359Y-114180000D02*
X112843641Y-114180000D01*
%TO.C,J4*%
X118680000Y-142780000D02*
X118680000Y-141400000D01*
X120060000Y-142780000D02*
X118680000Y-142780000D01*
X121330000Y-142780000D02*
X126520000Y-142780000D01*
X121330000Y-142780000D02*
X121330000Y-140020000D01*
X126520000Y-142780000D02*
X126520000Y-140020000D01*
X121330000Y-140020000D02*
X126520000Y-140020000D01*
%TO.C,U3*%
X121614432Y-112465000D02*
X124410000Y-112465000D01*
X124410000Y-114735000D02*
X121190000Y-114735000D01*
X121320000Y-112460000D02*
X121180000Y-112270000D01*
X121460000Y-112270000D01*
X121320000Y-112460000D01*
G36*
X121320000Y-112460000D02*
G01*
X121180000Y-112270000D01*
X121460000Y-112270000D01*
X121320000Y-112460000D01*
G37*
%TO.C,U1*%
X118990000Y-117190000D02*
X119640000Y-117190000D01*
X118990000Y-117840000D02*
X118990000Y-117190000D01*
X118990000Y-124410000D02*
X118990000Y-123760000D01*
X119640000Y-124410000D02*
X118990000Y-124410000D01*
X125560000Y-117190000D02*
X126210000Y-117190000D01*
X126210000Y-117190000D02*
X126210000Y-117840000D01*
X126210000Y-123760000D02*
X126210000Y-124410000D01*
X126210000Y-124410000D02*
X125560000Y-124410000D01*
X118460000Y-118200000D02*
X118130000Y-118440000D01*
X118130000Y-117960000D01*
X118460000Y-118200000D01*
G36*
X118460000Y-118200000D02*
G01*
X118130000Y-118440000D01*
X118130000Y-117960000D01*
X118460000Y-118200000D01*
G37*
%TO.C,R7*%
X112536359Y-121380000D02*
X112843641Y-121380000D01*
X112536359Y-122140000D02*
X112843641Y-122140000D01*
%TO.C,U2*%
X130102500Y-120640000D02*
X131622500Y-120640000D01*
X130102500Y-120690000D02*
X130102500Y-120640000D01*
X130102500Y-122590000D02*
X130102500Y-121810000D01*
X130102500Y-123760000D02*
X130102500Y-123710000D01*
X131622500Y-120640000D02*
X131622500Y-121640000D01*
X131622500Y-122760000D02*
X131622500Y-123760000D01*
X131622500Y-123760000D02*
X130102500Y-123760000D01*
X129562500Y-121820000D02*
X129802500Y-122150000D01*
X129322500Y-122150000D01*
X129562500Y-121820000D01*
G36*
X129802500Y-122150000D02*
G01*
X129322500Y-122150000D01*
X129562500Y-121820000D01*
X129802500Y-122150000D01*
G37*
%TO.C,C15*%
X132892164Y-112240000D02*
X133107836Y-112240000D01*
X132892164Y-112960000D02*
X133107836Y-112960000D01*
%TO.C,J3*%
X134620000Y-92500000D02*
X136000000Y-92500000D01*
X134620000Y-93880000D02*
X134620000Y-92500000D01*
X134620000Y-95150000D02*
X134620000Y-143520000D01*
X134620000Y-95150000D02*
X137380000Y-95150000D01*
X134620000Y-143520000D02*
X137380000Y-143520000D01*
X137380000Y-95150000D02*
X137380000Y-143520000D01*
%TO.C,C13*%
X116484420Y-120490000D02*
X116765580Y-120490000D01*
X116484420Y-121510000D02*
X116765580Y-121510000D01*
%TO.C,R2*%
X112536359Y-111430000D02*
X112843641Y-111430000D01*
X112536359Y-112190000D02*
X112843641Y-112190000D01*
%TO.C,C16*%
X133092164Y-114440000D02*
X133307836Y-114440000D01*
X133092164Y-115160000D02*
X133307836Y-115160000D01*
%TO.C,C12*%
X131642164Y-108380000D02*
X131857836Y-108380000D01*
X131642164Y-109100000D02*
X131857836Y-109100000D01*
%TO.C,C10*%
X131642164Y-104440000D02*
X131857836Y-104440000D01*
X131642164Y-105160000D02*
X131857836Y-105160000D01*
%TO.C,R1*%
X112536359Y-109440000D02*
X112843641Y-109440000D01*
X112536359Y-110200000D02*
X112843641Y-110200000D01*
%TO.C,C5*%
X128772164Y-106410000D02*
X128987836Y-106410000D01*
X128772164Y-107130000D02*
X128987836Y-107130000D01*
%TO.C,C2*%
X128172164Y-114640000D02*
X128387836Y-114640000D01*
X128172164Y-115360000D02*
X128387836Y-115360000D01*
%TO.C,C4*%
X128772164Y-104440000D02*
X128987836Y-104440000D01*
X128772164Y-105160000D02*
X128987836Y-105160000D01*
%TO.C,R5*%
X112536359Y-117400000D02*
X112843641Y-117400000D01*
X112536359Y-118160000D02*
X112843641Y-118160000D01*
%TO.C,C14*%
X116084420Y-122690000D02*
X116365580Y-122690000D01*
X116084420Y-123710000D02*
X116365580Y-123710000D01*
%TO.C,SW1*%
X123550000Y-125640000D02*
X127690000Y-125640000D01*
X123550000Y-125940000D02*
X123550000Y-125640000D01*
X123550000Y-128780000D02*
X123550000Y-128480000D01*
X127690000Y-125640000D02*
X127690000Y-125940000D01*
X127690000Y-128480000D02*
X127690000Y-128780000D01*
X127690000Y-128780000D02*
X123550000Y-128780000D01*
%TO.C,J1*%
X117220000Y-103900000D02*
X117220000Y-105900000D01*
X117220000Y-107800000D02*
X117220000Y-109700000D01*
X117220000Y-109700000D02*
X126620000Y-109700000D01*
X126620000Y-103900000D02*
X126620000Y-105900000D01*
X126620000Y-107800000D02*
X126620000Y-109700000D01*
%TO.C,C9*%
X121812164Y-105440000D02*
X122027836Y-105440000D01*
X121812164Y-106160000D02*
X122027836Y-106160000D01*
%TO.C,R6*%
X112536359Y-119390000D02*
X112843641Y-119390000D01*
X112536359Y-120150000D02*
X112843641Y-120150000D01*
%TD*%
M02*
