%TF.GenerationSoftware,KiCad,Pcbnew,10.0.4*%
%TF.CreationDate,2026-07-14T19:17:06+05:30*%
%TF.ProjectId,DEVBOD,44455642-4f44-42e6-9b69-6361645f7063,rev?*%
%TF.SameCoordinates,Original*%
%TF.FileFunction,Copper,L2,Bot*%
%TF.FilePolarity,Positive*%
%FSLAX46Y46*%
G04 Gerber Fmt 4.6, Leading zero omitted, Abs format (unit mm)*
G04 Created by KiCad (PCBNEW 10.0.4) date 2026-07-14 19:17:06*
%MOMM*%
%LPD*%
G01*
G04 APERTURE LIST*
%TA.AperFunction,ComponentPad*%
%ADD10C,1.700000*%
%TD*%
%TA.AperFunction,ComponentPad*%
%ADD11R,1.700000X1.700000*%
%TD*%
%TA.AperFunction,ComponentPad*%
%ADD12O,1.000000X2.100000*%
%TD*%
%TA.AperFunction,ComponentPad*%
%ADD13O,1.000000X1.600000*%
%TD*%
%TA.AperFunction,ViaPad*%
%ADD14C,0.500000*%
%TD*%
%TA.AperFunction,ViaPad*%
%ADD15C,0.250000*%
%TD*%
%TA.AperFunction,ViaPad*%
%ADD16C,0.450000*%
%TD*%
%TA.AperFunction,ViaPad*%
%ADD17C,0.600000*%
%TD*%
%TA.AperFunction,Conductor*%
%ADD18C,0.200000*%
%TD*%
%TA.AperFunction,Conductor*%
%ADD19C,0.300000*%
%TD*%
%TA.AperFunction,Conductor*%
%ADD20C,0.185000*%
%TD*%
G04 APERTURE END LIST*
D10*
%TO.P,J2,20,Pin_20_20*%
%TO.N,/GPIO15*%
X108200000Y-141800000D03*
%TO.P,J2,19,Pin_19_19*%
%TO.N,/GPIO14*%
X108200000Y-139260000D03*
%TO.P,J2,18,Pin_18_18*%
%TO.N,GND*%
X108200000Y-136720000D03*
%TO.P,J2,17,Pin_17_17*%
%TO.N,/GPIO13*%
X108200000Y-134180000D03*
%TO.P,J2,16,Pin_16_16*%
%TO.N,/GPIO12*%
X108200000Y-131640000D03*
%TO.P,J2,15,Pin_15_15*%
%TO.N,/GPIO11*%
X108200000Y-129100000D03*
%TO.P,J2,14,Pin_14_14*%
%TO.N,/GPIO10*%
X108200000Y-126560000D03*
%TO.P,J2,13,Pin_13_13*%
%TO.N,GND*%
X108200000Y-124020000D03*
%TO.P,J2,12,Pin_12_12*%
%TO.N,/GPIO9*%
X108200000Y-121480000D03*
%TO.P,J2,11,Pin_11_11*%
%TO.N,/GPIO8*%
X108200000Y-118940000D03*
%TO.P,J2,10,Pin_10_10*%
%TO.N,/GPIO7*%
X108200000Y-116400000D03*
%TO.P,J2,9,Pin_9_9*%
%TO.N,/GPIO6*%
X108200000Y-113860000D03*
%TO.P,J2,8,Pin_8_8*%
%TO.N,GND*%
X108200000Y-111320000D03*
%TO.P,J2,7,Pin_7_7*%
%TO.N,/GPIO5*%
X108200000Y-108780000D03*
%TO.P,J2,6,Pin_6_6*%
%TO.N,/GPIO4*%
X108200000Y-106240000D03*
%TO.P,J2,5,Pin_5_5*%
%TO.N,/GPIO3*%
X108200000Y-103700000D03*
%TO.P,J2,4,Pin_4_4*%
%TO.N,/GPIO2*%
X108200000Y-101160000D03*
%TO.P,J2,3,Pin_3_3*%
%TO.N,GND*%
X108200000Y-98620000D03*
%TO.P,J2,2,Pin_2_2*%
%TO.N,/GPIO1*%
X108200000Y-96080000D03*
D11*
%TO.P,J2,1,Pin_1_1*%
%TO.N,/GPIO0*%
X108200000Y-93540000D03*
%TD*%
%TO.P,J4,1,Pin_1_1*%
%TO.N,/SWCLK*%
X120060000Y-141400000D03*
D10*
%TO.P,J4,2,Pin_2_2*%
%TO.N,GND*%
X122600000Y-141400000D03*
%TO.P,J4,3,Pin_3_3*%
%TO.N,/SWD*%
X125140000Y-141400000D03*
%TD*%
D11*
%TO.P,J3,1,Pin_1_1*%
%TO.N,VBUS*%
X136000000Y-93880000D03*
D10*
%TO.P,J3,2,Pin_2_2*%
%TO.N,unconnected-(J3-Pin_2-Pad2)*%
X136000000Y-96420000D03*
%TO.P,J3,3,Pin_3_3*%
%TO.N,GND*%
X136000000Y-98960000D03*
%TO.P,J3,4,Pin_4_4*%
%TO.N,/GPI026_ADC2*%
X136000000Y-101500000D03*
%TO.P,J3,5,Pin_5_5*%
%TO.N,+3V3*%
X136000000Y-104040000D03*
%TO.P,J3,6,Pin_6_6*%
%TO.N,/GPI026_ADCO*%
X136000000Y-106580000D03*
%TO.P,J3,7,Pin_7_7*%
%TO.N,/GPI026_ADC1*%
X136000000Y-109120000D03*
%TO.P,J3,8,Pin_8_8*%
%TO.N,GND*%
X136000000Y-111660000D03*
%TO.P,J3,9,Pin_9_9*%
%TO.N,/GPIO24*%
X136000000Y-114200000D03*
%TO.P,J3,10,Pin_10_10*%
%TO.N,/GPIO23*%
X136000000Y-116740000D03*
%TO.P,J3,11,Pin_11_11*%
%TO.N,/RUN*%
X136000000Y-119280000D03*
%TO.P,J3,12,Pin_12_12*%
%TO.N,/GPIO22*%
X136000000Y-121820000D03*
%TO.P,J3,13,Pin_13_13*%
%TO.N,GND*%
X136000000Y-124360000D03*
%TO.P,J3,14,Pin_14_14*%
%TO.N,/GPIO21*%
X136000000Y-126900000D03*
%TO.P,J3,15,Pin_15_15*%
%TO.N,/GPIO20*%
X136000000Y-129440000D03*
%TO.P,J3,16,Pin_16_16*%
%TO.N,/GPIO19*%
X136000000Y-131980000D03*
%TO.P,J3,17,Pin_17_17*%
%TO.N,/GPIO18*%
X136000000Y-134520000D03*
%TO.P,J3,18,Pin_18_18*%
%TO.N,GND*%
X136000000Y-137060000D03*
%TO.P,J3,19,Pin_19_19*%
%TO.N,/GPIO17*%
X136000000Y-139600000D03*
%TO.P,J3,20,Pin_20_20*%
%TO.N,/GPIO16*%
X136000000Y-142140000D03*
%TD*%
D12*
%TO.P,J1,SH,SHIELD_SH*%
%TO.N,GND*%
X117600000Y-102670000D03*
D13*
X117600000Y-106850000D03*
D12*
X126240000Y-102670000D03*
D13*
X126240000Y-106850000D03*
%TD*%
D14*
%TO.N,/GPIO24*%
X133300000Y-117800000D03*
X132199999Y-118900000D03*
X129900000Y-122300000D03*
X122700000Y-129300000D03*
X119800000Y-129500000D03*
X116500000Y-127400000D03*
X116500000Y-125600000D03*
X124700000Y-120900000D03*
%TO.N,GND*%
X116400000Y-102700000D03*
%TO.N,/GPI026_ADCO*%
X134400000Y-109400000D03*
X128100000Y-119700000D03*
%TO.N,/GPIO2*%
X109600000Y-112000000D03*
X117500000Y-112700000D03*
X118300000Y-117500000D03*
X117900000Y-118700000D03*
%TO.N,/SWCLK*%
X119900000Y-139500000D03*
X120900000Y-132800000D03*
X120900000Y-126700000D03*
X120000000Y-125900000D03*
X123100000Y-122900000D03*
%TO.N,/GPI026_ADC1*%
X132800000Y-111800000D03*
X129600000Y-112100000D03*
X129400000Y-113300000D03*
X125000000Y-119700000D03*
%TO.N,/GPIO13*%
X118900000Y-130400000D03*
%TO.N,/GPIO3*%
X117500000Y-119500000D03*
X114500000Y-119500000D03*
X110900000Y-113100000D03*
X110300000Y-112000000D03*
%TO.N,/RUN*%
X125100000Y-122400000D03*
%TO.N,/GPIO0*%
X113600000Y-102800000D03*
X115000000Y-104200000D03*
X114500000Y-117600000D03*
X117500000Y-117500000D03*
%TO.N,/GPIO16*%
X128600000Y-127400000D03*
X126200000Y-126000000D03*
%TO.N,/GPI026_ADC2*%
X137700000Y-101500000D03*
X137700000Y-116700000D03*
X127500000Y-120000000D03*
%TO.N,/GPIO4*%
X117500000Y-122000000D03*
X108900000Y-120200000D03*
%TO.N,/GPIO10*%
X117600000Y-124100000D03*
X110900000Y-124100000D03*
%TO.N,/GPIO9*%
X117900000Y-122600000D03*
%TO.N,/GPIO23*%
X128699999Y-119400000D03*
%TO.N,/GPIO22*%
X133300000Y-124500000D03*
%TO.N,+3V3*%
X120200000Y-118400000D03*
X119300000Y-117900000D03*
%TO.N,GND*%
X122700000Y-105500000D03*
D15*
%TO.N,/QSPI_SD2*%
X121375000Y-113850000D03*
X120800000Y-117362000D03*
D14*
%TO.N,GND*%
X134000000Y-138300000D03*
X125800000Y-130100000D03*
X123700000Y-128000000D03*
%TO.N,+3V3*%
X128100000Y-117400000D03*
D15*
X119162000Y-121800000D03*
D14*
X120100000Y-121800000D03*
D16*
X125950000Y-118100000D03*
X124700000Y-117200000D03*
D14*
X125300000Y-114100000D03*
X123700000Y-115700000D03*
%TO.N,GND*%
X112700000Y-133900000D03*
X115100000Y-131500000D03*
X119100000Y-124500000D03*
X121200000Y-122200000D03*
X125000000Y-118900000D03*
X127400000Y-117800000D03*
X124000000Y-104200000D03*
X122700000Y-104600000D03*
X115500000Y-100600000D03*
%TO.N,/GPIO12*%
X117000000Y-131500000D03*
X117000000Y-132900000D03*
%TO.N,/GPIO11*%
X117700000Y-124900000D03*
X110700000Y-124900000D03*
D15*
%TO.N,/GPIO21*%
X126037000Y-122200000D03*
D14*
X127000000Y-122200000D03*
%TO.N,+1V1*%
X127000000Y-115700000D03*
X127000000Y-114300000D03*
X126900000Y-112500000D03*
X130100000Y-109500000D03*
D15*
%TO.N,/QSPI_SD3*%
X124225000Y-113350000D03*
X122000000Y-117362000D03*
%TO.N,/GPIO19*%
X126037000Y-123000000D03*
D14*
X127100000Y-123500000D03*
D15*
%TO.N,/X_IN*%
X122000000Y-124237000D03*
D14*
%TO.N,/QSPI_SS*%
X118100000Y-113000000D03*
%TO.N,/GPIO17*%
X127200000Y-128800000D03*
X126200000Y-127800000D03*
D17*
%TO.N,Net-(J1-CC1)*%
X120720700Y-103811500D03*
X112203500Y-108567300D03*
%TO.N,Net-(C16-Pad2)*%
X133680000Y-115628800D03*
X113998200Y-120063900D03*
%TO.N,VBUS*%
X120118400Y-103007200D03*
%TO.N,/X_IN*%
X133330400Y-113432300D03*
X115591300Y-126660300D03*
%TO.N,/QSPI_SS*%
X120402800Y-112958100D03*
X113198800Y-120592800D03*
%TO.N,/USB_D-*%
X123354900Y-106366700D03*
X112459200Y-114791800D03*
%TO.N,+3V3*%
X124310000Y-104977000D03*
X115096200Y-116858200D03*
%TD*%
%TO.N,/GPIO24*%
D18*
X132199999Y-118900000D02*
X133300000Y-117800000D01*
X126800000Y-125400000D02*
X129900000Y-122300000D01*
X125500000Y-125400000D02*
X126800000Y-125400000D01*
X122700000Y-128199999D02*
X125500000Y-125400000D01*
X122700000Y-129300000D02*
X122700000Y-128199999D01*
X117700000Y-127400000D02*
X119800000Y-129500000D01*
X116500000Y-127400000D02*
X117700000Y-127400000D01*
X118800000Y-125600000D02*
X116500000Y-125600000D01*
X123500000Y-120900000D02*
X118800000Y-125600000D01*
X124700000Y-120900000D02*
X123500000Y-120900000D01*
%TO.N,GND*%
X115500000Y-101800000D02*
X115500000Y-100600000D01*
X116400000Y-102700000D02*
X115500000Y-101800000D01*
%TO.N,/GPI026_ADCO*%
X134400000Y-115900000D02*
X134400000Y-109400000D01*
X131500000Y-118800000D02*
X134400000Y-115900000D01*
X128500000Y-118800000D02*
X131500000Y-118800000D01*
X128100000Y-119200000D02*
X128500000Y-118800000D01*
X128100000Y-119700000D02*
X128100000Y-119200000D01*
%TO.N,/GPIO2*%
X109600000Y-112900000D02*
X109600000Y-112000000D01*
X112200000Y-115500000D02*
X109600000Y-112900000D01*
X114700000Y-115500000D02*
X112200000Y-115500000D01*
X117500000Y-112700000D02*
X114700000Y-115500000D01*
X117900000Y-117900000D02*
X118300000Y-117500000D01*
X117900000Y-118700000D02*
X117900000Y-117900000D01*
%TO.N,/SWCLK*%
X119900000Y-139500000D02*
X119900000Y-141200000D01*
X120900000Y-126700000D02*
X120900000Y-132800000D01*
X120000000Y-125500000D02*
X120000000Y-125900000D01*
X122600000Y-122900000D02*
X120000000Y-125500000D01*
X123100000Y-122900000D02*
X122600000Y-122900000D01*
%TO.N,/GPI026_ADC1*%
X132500000Y-112100000D02*
X132800000Y-111800000D01*
X129600000Y-112100000D02*
X132500000Y-112100000D01*
X127600000Y-115100000D02*
X129400000Y-113300000D01*
X127600000Y-115900000D02*
X127600000Y-115100000D01*
X127200000Y-116300000D02*
X127600000Y-115900000D01*
X124800000Y-116300000D02*
X127200000Y-116300000D01*
X124100000Y-117000000D02*
X124800000Y-116300000D01*
X124100000Y-118800000D02*
X124100000Y-117000000D01*
X125000000Y-119700000D02*
X124100000Y-118800000D01*
%TO.N,/GPIO13*%
X112000000Y-130400000D02*
X118900000Y-130400000D01*
X108200000Y-134199999D02*
X112000000Y-130400000D01*
%TO.N,/GPIO3*%
X117300000Y-119700000D02*
X117500000Y-119500000D01*
X114700000Y-119700000D02*
X117300000Y-119700000D01*
X114500000Y-119500000D02*
X114700000Y-119700000D01*
X110300000Y-112500000D02*
X110900000Y-113100000D01*
X110300000Y-112000000D02*
X110300000Y-112500000D01*
%TO.N,/RUN*%
X133900000Y-121400000D02*
X136000000Y-119300000D01*
X126100000Y-121400000D02*
X133900000Y-121400000D01*
X125100000Y-122400000D02*
X126100000Y-121400000D01*
%TO.N,/GPIO0*%
X115000000Y-104200000D02*
X113600000Y-102800000D01*
X115300000Y-117600000D02*
X114500000Y-117600000D01*
X115400000Y-117500000D02*
X115300000Y-117600000D01*
X117500000Y-117500000D02*
X115400000Y-117500000D01*
%TO.N,/GPIO16*%
X127200000Y-126000000D02*
X128600000Y-127400000D01*
X126200000Y-126000000D02*
X127200000Y-126000000D01*
%TO.N,/GPI026_ADC2*%
X137700000Y-101500000D02*
X136000000Y-101500000D01*
X136500000Y-117900000D02*
X137700000Y-116700000D01*
X135700000Y-117900000D02*
X136500000Y-117900000D01*
X132600000Y-121000000D02*
X135700000Y-117900000D01*
X128500000Y-121000000D02*
X132600000Y-121000000D01*
X127500000Y-120000000D02*
X128500000Y-121000000D01*
%TO.N,/GPIO4*%
X117200000Y-122300000D02*
X117500000Y-122000000D01*
X113300000Y-122300000D02*
X117200000Y-122300000D01*
X111200000Y-120200000D02*
X113300000Y-122300000D01*
X108900000Y-120200000D02*
X111200000Y-120200000D01*
%TO.N,/GPIO10*%
X110900000Y-124100000D02*
X117600000Y-124100000D01*
%TO.N,/GPIO9*%
X117800000Y-122700000D02*
X117900000Y-122600000D01*
X113100000Y-122700000D02*
X117800000Y-122700000D01*
X111900000Y-121500000D02*
X113100000Y-122700000D01*
X108200000Y-121500000D02*
X111900000Y-121500000D01*
%TO.N,/GPIO23*%
X133300000Y-119400000D02*
X136000000Y-116700000D01*
X128699999Y-119400000D02*
X133300000Y-119400000D01*
%TO.N,/GPIO22*%
X133300000Y-124500000D02*
X136000000Y-121800000D01*
%TO.N,+3V3*%
X125600000Y-118100000D02*
X126000000Y-118100000D01*
X124700000Y-117200000D02*
X125600000Y-118100000D01*
X119700000Y-117900000D02*
X120200000Y-118400000D01*
X119300000Y-117900000D02*
X119700000Y-117900000D01*
%TO.N,GND*%
X122700000Y-105500000D02*
X124000000Y-104200000D01*
D19*
X114902000Y-98620000D02*
X114902000Y-98620000D01*
X118600000Y-106800000D02*
X117600000Y-106800000D01*
X120800000Y-104600000D02*
X118600000Y-106800000D01*
X122700000Y-104600000D02*
X120800000Y-104600000D01*
X123600000Y-104600000D02*
X122700000Y-104600000D01*
X124000000Y-104200000D02*
X123600000Y-104600000D01*
%TO.N,/QSPI_SD2*%
X121400000Y-116800000D02*
X120800000Y-117400000D01*
X121400000Y-115400000D02*
X121400000Y-116800000D01*
X121500000Y-115300000D02*
X121400000Y-115400000D01*
X121500000Y-113900000D02*
X121500000Y-115300000D01*
D20*
X121400000Y-113800000D02*
X121500000Y-113900000D01*
%TO.N,GND*%
D19*
X114900000Y-98600000D02*
X114902000Y-98620000D01*
X115500000Y-99200000D02*
X114900000Y-98600000D01*
X115500000Y-100600000D02*
X115500000Y-99200000D01*
X123100000Y-104200000D02*
X124000000Y-104200000D01*
X122700000Y-104600000D02*
X123100000Y-104200000D01*
X117600000Y-106800000D02*
X117600000Y-105700000D01*
X117600000Y-106850000D02*
X117600000Y-106800000D01*
X136000000Y-137100000D02*
X136000000Y-137060000D01*
X134800000Y-138300000D02*
X136000000Y-137100000D01*
X134000000Y-138300000D02*
X134800000Y-138300000D01*
X123700000Y-128000000D02*
X125800000Y-130100000D01*
%TO.N,+3V3*%
X127700000Y-117000000D02*
X128100000Y-117400000D01*
X127100000Y-117000000D02*
X127700000Y-117000000D01*
X126000000Y-118100000D02*
X127100000Y-117000000D01*
X119200000Y-121800000D02*
X119162000Y-121800000D01*
X120100000Y-121800000D02*
X119200000Y-121800000D01*
X126000000Y-118100000D02*
X126037000Y-118200000D01*
X125100000Y-117200000D02*
X126000000Y-118100000D01*
X124700000Y-117200000D02*
X125100000Y-117200000D01*
X123700000Y-115700000D02*
X125300000Y-114100000D01*
%TO.N,GND*%
X115100000Y-131500000D02*
X112700000Y-133900000D01*
X119100000Y-124300000D02*
X119100000Y-124500000D01*
X121200000Y-122200000D02*
X119100000Y-124300000D01*
X126300000Y-118900000D02*
X125000000Y-118900000D01*
X127400000Y-117800000D02*
X126300000Y-118900000D01*
X123600000Y-104600000D02*
X124000000Y-104200000D01*
X122700000Y-104600000D02*
X123600000Y-104600000D01*
X117600000Y-105700000D02*
X117600000Y-106800000D01*
X117600000Y-105748000D02*
X117600000Y-105700000D01*
%TO.N,/GPIO12*%
X117000000Y-132900000D02*
X117000000Y-131500000D01*
%TO.N,/GPIO11*%
X110700000Y-124900000D02*
X117700000Y-124900000D01*
%TO.N,/GPIO21*%
X126000000Y-122200000D02*
X127000000Y-122200000D01*
%TO.N,+1V1*%
X127000000Y-114300000D02*
X127000000Y-115700000D01*
X127200000Y-112200000D02*
X126900000Y-112500000D01*
X127400000Y-112200000D02*
X127200000Y-112200000D01*
X130100000Y-109500000D02*
X127400000Y-112200000D01*
%TO.N,/QSPI_SD3*%
X122000000Y-115600000D02*
X122000000Y-117400000D01*
X124200000Y-113400000D02*
X122000000Y-115600000D01*
%TO.N,/GPIO19*%
X126500000Y-123500000D02*
X127100000Y-123500000D01*
X126000000Y-123000000D02*
X126500000Y-123500000D01*
%TO.N,/X_IN*%
X122000000Y-124800000D02*
X122000000Y-124200000D01*
X120100000Y-126700000D02*
X122000000Y-124800000D01*
X120102000Y-126660000D02*
X120100000Y-126700000D01*
%TO.N,/GPIO17*%
X126200000Y-127800000D02*
X127200000Y-128800000D01*
%TO.N,Net-(J1-CC1)*%
D18*
X116260300Y-104510500D02*
X112203500Y-108567300D01*
X120021700Y-104510500D02*
X116260300Y-104510500D01*
X120720700Y-103811500D02*
X120021700Y-104510500D01*
%TO.N,Net-(C16-Pad2)*%
X120292200Y-120063900D02*
X113998200Y-120063900D01*
X127597000Y-112759100D02*
X120292200Y-120063900D01*
X133542200Y-112759100D02*
X127597000Y-112759100D01*
X133932200Y-113149100D02*
X133542200Y-112759100D01*
X133932200Y-115376600D02*
X133932200Y-113149100D01*
X133680000Y-115628800D02*
X133932200Y-115376600D01*
%TO.N,VBUS*%
X129245600Y-93880000D02*
X120118400Y-103007200D01*
X136000000Y-93880000D02*
X129245600Y-93880000D01*
%TO.N,/X_IN*%
X120102400Y-126660300D02*
X115591300Y-126660300D01*
X133330400Y-113432300D02*
X120102400Y-126660300D01*
%TO.N,/QSPI_SS*%
X113198800Y-117888500D02*
X113198800Y-120592800D01*
X118129200Y-112958100D02*
X113198800Y-117888500D01*
X120402800Y-112958100D02*
X118129200Y-112958100D01*
%TO.N,/USB_D-*%
X120884300Y-106366700D02*
X112459200Y-114791800D01*
X123354900Y-106366700D02*
X120884300Y-106366700D01*
%TO.N,GND*%
X117600000Y-106850000D02*
X117600000Y-105748300D01*
X114901700Y-98620000D02*
X117600000Y-101318300D01*
X108200000Y-98620000D02*
X114901700Y-98620000D01*
X117600000Y-102670000D02*
X117600000Y-101318300D01*
X117600000Y-106850000D02*
X117600000Y-107951700D01*
X126940000Y-137060000D02*
X122600000Y-141400000D01*
X136000000Y-137060000D02*
X126940000Y-137060000D01*
X117920000Y-136720000D02*
X108200000Y-136720000D01*
X122600000Y-141400000D02*
X117920000Y-136720000D01*
X114231700Y-111320000D02*
X117600000Y-107951700D01*
X108200000Y-111320000D02*
X114231700Y-111320000D01*
%TO.N,+3V3*%
X126093000Y-104977000D02*
X124310000Y-104977000D01*
X127091200Y-105975200D02*
X126093000Y-104977000D01*
X134064800Y-105975200D02*
X127091200Y-105975200D01*
X136000000Y-104040000D02*
X134064800Y-105975200D01*
X127091200Y-107482600D02*
X127091200Y-105975200D01*
X117715600Y-116858200D02*
X127091200Y-107482600D01*
X115096200Y-116858200D02*
X117715600Y-116858200D01*
%TD*%
M02*
